<svg width="420" height="640" viewBox="0 0 420 640" fill="none" xmlns="http://www.w3.org/2000/svg">
  <defs>
    <linearGradient id="bg2" x1="0" y1="0" x2="1" y2="1">
      <stop offset="0" stop-color="#F8D9DF"/>
      <stop offset="1" stop-color="#BFD6E8"/>
    </linearGradient>
  </defs>
  <rect width="420" height="640" rx="36" fill="url(#bg2)"/>
  <ellipse cx="210" cy="560" rx="220" ry="130" fill="#8093A3" opacity="0.45"/>
  <path d="M96 332C96 254 139 202 210 202C281 202 324 254 324 332V492H96V332Z" fill="#DEE8EE"/>
  <ellipse cx="210" cy="183" rx="76" ry="86" fill="#F5C6A8"/>
  <path d="M130 187C132 132 163 89 212 89C269 89 302 136 300 194C286 152 260 127 214 127C172 127 145 149 130 187Z" fill="#2E2731"/>
  <path d="M142 135C174 76 259 74 292 132C277 117 257 107 235 103C210 98 183 102 160 114C152 118 146 125 142 135Z" fill="#2E2731"/>
  <circle cx="183" cy="183" r="6" fill="#3C2721"/>
  <circle cx="237" cy="183" r="6" fill="#3C2721"/>
  <path d="M188 223C198 232 222 232 232 223" stroke="#B46F53" stroke-width="5" stroke-linecap="round"/>
</svg>
